<svg xmlns="http://www.w3.org/2000/svg" xmlns:xlink="http://www.w3.org/1999/xlink" width="500" zoomAndPan="magnify" viewBox="0 0 375 374.999991" height="500" preserveAspectRatio="xMidYMid meet" version="1.2"><defs><clipPath id="1d97c4fff4"><path d="M 150 200.003906 L 311.191406 200.003906 L 311.191406 222 L 150 222 Z M 150 200.003906 "/></clipPath><clipPath id="537eee7d4c"><path d="M 63.691406 204 L 91 204 L 91 222 L 63.691406 222 Z M 63.691406 204 "/></clipPath></defs><g id="912a54e862"><rect x="0" width="375" y="0" height="374.999991" style="fill:#ffffff;fill-opacity:1;stroke:none;"/><rect x="0" width="375" y="0" height="374.999991" style="fill:#222222;fill-opacity:1;stroke:none;"/><g style="fill:#ff00ff;fill-opacity:1;"><g transform="translate(85.619469, 200.704153)"><path style="stroke:none" d="M 0 -5.609375 L 0 -44.875 L 28.046875 -44.875 L 28.046875 -39.265625 L 33.65625 -39.265625 L 33.65625 -33.65625 L 39.265625 -33.65625 L 39.265625 -16.828125 L 33.65625 -16.828125 L 33.65625 -11.21875 L 28.046875 -11.21875 L 28.046875 -5.609375 Z M 11.21875 -11.21875 L 22.4375 -11.21875 L 22.4375 -16.828125 L 28.046875 -16.828125 L 28.046875 -33.65625 L 22.4375 -33.65625 L 22.4375 -39.265625 L 11.21875 -39.265625 Z M 11.21875 -11.21875 "/></g></g><g style="fill:#ff00ff;fill-opacity:1;"><g transform="translate(128.291185, 200.704153)"><path style="stroke:none" d="M 0 -5.609375 L 0 -44.875 L 39.265625 -44.875 L 39.265625 -39.265625 L 11.21875 -39.265625 L 11.21875 -28.046875 L 33.65625 -28.046875 L 33.65625 -22.4375 L 11.21875 -22.4375 L 11.21875 -11.21875 L 39.265625 -11.21875 L 39.265625 -5.609375 Z M 0 -5.609375 "/></g></g><g style="fill:#ff00ff;fill-opacity:1;"><g transform="translate(170.962901, 200.704153)"><path style="stroke:none" d="M 11.21875 -5.609375 L 11.21875 -11.21875 L 5.609375 -11.21875 L 5.609375 -16.828125 L 0 -16.828125 L 0 -33.65625 L 5.609375 -33.65625 L 5.609375 -39.265625 L 11.21875 -39.265625 L 11.21875 -44.875 L 33.65625 -44.875 L 33.65625 -39.265625 L 39.265625 -39.265625 L 39.265625 -33.65625 L 28.046875 -33.65625 L 28.046875 -39.265625 L 16.828125 -39.265625 L 16.828125 -33.65625 L 11.21875 -33.65625 L 11.21875 -16.828125 L 16.828125 -16.828125 L 16.828125 -11.21875 L 28.046875 -11.21875 L 28.046875 -16.828125 L 39.265625 -16.828125 L 39.265625 -11.21875 L 33.65625 -11.21875 L 33.65625 -5.609375 Z M 11.21875 -5.609375 "/></g></g><g style="fill:#ff00ff;fill-opacity:1;"><g transform="translate(213.634617, 200.704153)"><path style="stroke:none" d="M 0 -5.609375 L 0 -44.875 L 39.265625 -44.875 L 39.265625 -39.265625 L 11.21875 -39.265625 L 11.21875 -28.046875 L 33.65625 -28.046875 L 33.65625 -22.4375 L 11.21875 -22.4375 L 11.21875 -11.21875 L 39.265625 -11.21875 L 39.265625 -5.609375 Z M 0 -5.609375 "/></g></g><g style="fill:#ff00ff;fill-opacity:1;"><g transform="translate(256.306333, 200.704153)"><path style="stroke:none" d="M 0 -5.609375 L 0 -44.875 L 11.21875 -44.875 L 11.21875 -39.265625 L 16.828125 -39.265625 L 16.828125 -33.65625 L 22.4375 -33.65625 L 22.4375 -28.046875 L 28.046875 -28.046875 L 28.046875 -44.875 L 39.265625 -44.875 L 39.265625 -5.609375 L 28.046875 -5.609375 L 28.046875 -16.828125 L 22.4375 -16.828125 L 22.4375 -22.4375 L 16.828125 -22.4375 L 16.828125 -28.046875 L 11.21875 -28.046875 L 11.21875 -5.609375 Z M 0 -5.609375 "/></g></g><g style="fill:#00ffff;fill-opacity:1;"><g transform="translate(83.93665, 200.704153)"><path style="stroke:none" d="M 0 -5.609375 L 0 -44.875 L 28.046875 -44.875 L 28.046875 -39.265625 L 33.65625 -39.265625 L 33.65625 -33.65625 L 39.265625 -33.65625 L 39.265625 -16.828125 L 33.65625 -16.828125 L 33.65625 -11.21875 L 28.046875 -11.21875 L 28.046875 -5.609375 Z M 11.21875 -11.21875 L 22.4375 -11.21875 L 22.4375 -16.828125 L 28.046875 -16.828125 L 28.046875 -33.65625 L 22.4375 -33.65625 L 22.4375 -39.265625 L 11.21875 -39.265625 Z M 11.21875 -11.21875 "/></g></g><g style="fill:#00ffff;fill-opacity:1;"><g transform="translate(126.608366, 200.704153)"><path style="stroke:none" d="M 0 -5.609375 L 0 -44.875 L 39.265625 -44.875 L 39.265625 -39.265625 L 11.21875 -39.265625 L 11.21875 -28.046875 L 33.65625 -28.046875 L 33.65625 -22.4375 L 11.21875 -22.4375 L 11.21875 -11.21875 L 39.265625 -11.21875 L 39.265625 -5.609375 Z M 0 -5.609375 "/></g></g><g style="fill:#00ffff;fill-opacity:1;"><g transform="translate(169.280082, 200.704153)"><path style="stroke:none" d="M 11.21875 -5.609375 L 11.21875 -11.21875 L 5.609375 -11.21875 L 5.609375 -16.828125 L 0 -16.828125 L 0 -33.65625 L 5.609375 -33.65625 L 5.609375 -39.265625 L 11.21875 -39.265625 L 11.21875 -44.875 L 33.65625 -44.875 L 33.65625 -39.265625 L 39.265625 -39.265625 L 39.265625 -33.65625 L 28.046875 -33.65625 L 28.046875 -39.265625 L 16.828125 -39.265625 L 16.828125 -33.65625 L 11.21875 -33.65625 L 11.21875 -16.828125 L 16.828125 -16.828125 L 16.828125 -11.21875 L 28.046875 -11.21875 L 28.046875 -16.828125 L 39.265625 -16.828125 L 39.265625 -11.21875 L 33.65625 -11.21875 L 33.65625 -5.609375 Z M 11.21875 -5.609375 "/></g></g><g style="fill:#00ffff;fill-opacity:1;"><g transform="translate(211.951798, 200.704153)"><path style="stroke:none" d="M 0 -5.609375 L 0 -44.875 L 39.265625 -44.875 L 39.265625 -39.265625 L 11.21875 -39.265625 L 11.21875 -28.046875 L 33.65625 -28.046875 L 33.65625 -22.4375 L 11.21875 -22.4375 L 11.21875 -11.21875 L 39.265625 -11.21875 L 39.265625 -5.609375 Z M 0 -5.609375 "/></g></g><g style="fill:#00ffff;fill-opacity:1;"><g transform="translate(254.623514, 200.704153)"><path style="stroke:none" d="M 0 -5.609375 L 0 -44.875 L 11.21875 -44.875 L 11.21875 -39.265625 L 16.828125 -39.265625 L 16.828125 -33.65625 L 22.4375 -33.65625 L 22.4375 -28.046875 L 28.046875 -28.046875 L 28.046875 -44.875 L 39.265625 -44.875 L 39.265625 -5.609375 L 28.046875 -5.609375 L 28.046875 -16.828125 L 22.4375 -16.828125 L 22.4375 -22.4375 L 16.828125 -22.4375 L 16.828125 -28.046875 L 11.21875 -28.046875 L 11.21875 -5.609375 Z M 0 -5.609375 "/></g></g><g style="fill:#adff45;fill-opacity:1;"><g transform="translate(84.77806, 200.704153)"><path style="stroke:none" d="M 0 -5.609375 L 0 -44.875 L 28.046875 -44.875 L 28.046875 -39.265625 L 33.65625 -39.265625 L 33.65625 -33.65625 L 39.265625 -33.65625 L 39.265625 -16.828125 L 33.65625 -16.828125 L 33.65625 -11.21875 L 28.046875 -11.21875 L 28.046875 -5.609375 Z M 11.21875 -11.21875 L 22.4375 -11.21875 L 22.4375 -16.828125 L 28.046875 -16.828125 L 28.046875 -33.65625 L 22.4375 -33.65625 L 22.4375 -39.265625 L 11.21875 -39.265625 Z M 11.21875 -11.21875 "/></g></g><g style="fill:#adff45;fill-opacity:1;"><g transform="translate(127.449776, 200.704153)"><path style="stroke:none" d="M 0 -5.609375 L 0 -44.875 L 39.265625 -44.875 L 39.265625 -39.265625 L 11.21875 -39.265625 L 11.21875 -28.046875 L 33.65625 -28.046875 L 33.65625 -22.4375 L 11.21875 -22.4375 L 11.21875 -11.21875 L 39.265625 -11.21875 L 39.265625 -5.609375 Z M 0 -5.609375 "/></g></g><g style="fill:#adff45;fill-opacity:1;"><g transform="translate(170.121492, 200.704153)"><path style="stroke:none" d="M 11.21875 -5.609375 L 11.21875 -11.21875 L 5.609375 -11.21875 L 5.609375 -16.828125 L 0 -16.828125 L 0 -33.65625 L 5.609375 -33.65625 L 5.609375 -39.265625 L 11.21875 -39.265625 L 11.21875 -44.875 L 33.65625 -44.875 L 33.65625 -39.265625 L 39.265625 -39.265625 L 39.265625 -33.65625 L 28.046875 -33.65625 L 28.046875 -39.265625 L 16.828125 -39.265625 L 16.828125 -33.65625 L 11.21875 -33.65625 L 11.21875 -16.828125 L 16.828125 -16.828125 L 16.828125 -11.21875 L 28.046875 -11.21875 L 28.046875 -16.828125 L 39.265625 -16.828125 L 39.265625 -11.21875 L 33.65625 -11.21875 L 33.65625 -5.609375 Z M 11.21875 -5.609375 "/></g></g><g style="fill:#adff45;fill-opacity:1;"><g transform="translate(212.793208, 200.704153)"><path style="stroke:none" d="M 0 -5.609375 L 0 -44.875 L 39.265625 -44.875 L 39.265625 -39.265625 L 11.21875 -39.265625 L 11.21875 -28.046875 L 33.65625 -28.046875 L 33.65625 -22.4375 L 11.21875 -22.4375 L 11.21875 -11.21875 L 39.265625 -11.21875 L 39.265625 -5.609375 Z M 0 -5.609375 "/></g></g><g style="fill:#adff45;fill-opacity:1;"><g transform="translate(255.464924, 200.704153)"><path style="stroke:none" d="M 0 -5.609375 L 0 -44.875 L 11.21875 -44.875 L 11.21875 -39.265625 L 16.828125 -39.265625 L 16.828125 -33.65625 L 22.4375 -33.65625 L 22.4375 -28.046875 L 28.046875 -28.046875 L 28.046875 -44.875 L 39.265625 -44.875 L 39.265625 -5.609375 L 28.046875 -5.609375 L 28.046875 -16.828125 L 22.4375 -16.828125 L 22.4375 -22.4375 L 16.828125 -22.4375 L 16.828125 -28.046875 L 11.21875 -28.046875 L 11.21875 -5.609375 Z M 0 -5.609375 "/></g></g><g clip-rule="nonzero" clip-path="url(#1d97c4fff4)"><path style=" stroke:none;fill-rule:nonzero;fill:#adff45;fill-opacity:1;" d="M 307.164062 200.898438 C 305.128906 200.898438 303.441406 202.46875 303.210938 204.425781 L 167.527344 204.425781 L 150.070312 221.847656 L 151.449219 221.847656 L 167.910156 205.386719 L 303.210938 205.386719 C 303.441406 207.382812 305.128906 208.917969 307.164062 208.917969 C 309.390625 208.917969 311.191406 207.113281 311.191406 204.886719 C 311.191406 202.699219 309.390625 200.898438 307.164062 200.898438 Z M 307.164062 207.957031 C 305.515625 207.957031 304.132812 206.578125 304.132812 204.886719 C 304.132812 203.238281 305.515625 201.855469 307.164062 201.855469 C 308.851562 201.855469 310.234375 203.238281 310.234375 204.886719 C 310.234375 206.578125 308.851562 207.957031 307.164062 207.957031 Z M 307.164062 207.957031 "/></g><path style=" stroke:none;fill-rule:nonzero;fill:#adff45;fill-opacity:1;" d="M 149.992188 204.886719 L 133.070312 221.847656 L 142.738281 221.847656 L 159.660156 204.886719 Z M 149.992188 204.886719 "/><path style=" stroke:none;fill-rule:nonzero;fill:#adff45;fill-opacity:1;" d="M 132.648438 204.886719 L 115.726562 221.847656 L 125.394531 221.847656 L 142.316406 204.886719 Z M 132.648438 204.886719 "/><path style=" stroke:none;fill-rule:nonzero;fill:#adff45;fill-opacity:1;" d="M 115.304688 204.886719 L 98.382812 221.847656 L 108.050781 221.847656 L 124.972656 204.886719 Z M 115.304688 204.886719 "/><path style=" stroke:none;fill-rule:nonzero;fill:#adff45;fill-opacity:1;" d="M 97.960938 204.886719 L 81.039062 221.847656 L 90.707031 221.847656 L 107.667969 204.886719 Z M 97.960938 204.886719 "/><g clip-rule="nonzero" clip-path="url(#537eee7d4c)"><path style=" stroke:none;fill-rule:nonzero;fill:#adff45;fill-opacity:1;" d="M 80.613281 204.886719 L 63.691406 221.847656 L 73.363281 221.847656 L 90.324219 204.886719 Z M 80.613281 204.886719 "/></g></g></svg>