<svg width="35" height="35" viewBox="0 0 35 35" fill="none" xmlns="http://www.w3.org/2000/svg">
<path d="M26.8465 30.637C24.5501 28.0723 21.2135 26.4583 17.5 26.4583C13.7865 26.4583 10.4497 28.0723 8.15324 30.637M17.5 33.625C8.59441 33.625 1.375 26.4056 1.375 17.5C1.375 8.59441 8.59441 1.375 17.5 1.375C26.4056 1.375 33.625 8.59441 33.625 17.5C33.625 26.4056 26.4056 33.625 17.5 33.625ZM17.5 21.0833C14.5315 21.0833 12.125 18.6769 12.125 15.7083C12.125 12.7398 14.5315 10.3333 17.5 10.3333C20.4685 10.3333 22.875 12.7398 22.875 15.7083C22.875 18.6769 20.4685 21.0833 17.5 21.0833Z" stroke="#F2F2FA" stroke-width="2" stroke-linecap="round" stroke-linejoin="round"/>
</svg>
